<?xml version="1.0" encoding="UTF-8" standalone="no"?>
<svg
   xmlns:dc="http://purl.org/dc/elements/1.1/"
   xmlns:cc="http://creativecommons.org/ns#"
   xmlns:rdf="http://www.w3.org/1999/02/22-rdf-syntax-ns#"
   xmlns:svg="http://www.w3.org/2000/svg"
   xmlns="http://www.w3.org/2000/svg"
   xmlns:xlink="http://www.w3.org/1999/xlink"
   xmlns:sodipodi="http://sodipodi.sourceforge.net/DTD/sodipodi-0.dtd"
   xmlns:inkscape="http://www.inkscape.org/namespaces/inkscape"
   width="500"
   height="500"
   id="svg2"
   version="1.1"
   inkscape:version="0.48.2 r9819"
   sodipodi:docname="asm3.svg">
  <sodipodi:namedview
     pagecolor="#ffffff"
     bordercolor="#666666"
     borderopacity="1"
     objecttolerance="10"
     gridtolerance="10"
     guidetolerance="10"
     inkscape:pageopacity="0"
     inkscape:pageshadow="2"
     inkscape:window-width="1360"
     inkscape:window-height="739"
     id="namedview16"
     showgrid="false"
     inkscape:zoom="1"
     inkscape:cx="275.86216"
     inkscape:cy="251"
     inkscape:window-x="0"
     inkscape:window-y="0"
     inkscape:window-maximized="1"
     inkscape:current-layer="svg2"
     showguides="true"
     inkscape:guide-bbox="true"
     inkscape:object-paths="false"
     inkscape:snap-nodes="true" />
  <metadata
     id="metadata2485">image/svg+xml<rdf:RDF>
  <cc:Work
     rdf:about="">
    <dc:format>image/svg+xml</dc:format>
    <dc:type
       rdf:resource="http://purl.org/dc/dcmitype/StillImage" />
    <dc:title />
  </cc:Work>
</rdf:RDF>
</metadata>
  <defs
     id="defs5">
    <linearGradient
       id="linearGradient3299">
      <stop
         offset="0"
         id="stop3301"
         stop-color="#42057c" />
      <stop
         offset="1"
         id="stop3303"
         stop-opacity="0"
         stop-color="#42057c" />
    </linearGradient>
    <linearGradient
       xlink:href="#linearGradient3299"
       id="linearGradient3305"
       x1="0.047052"
       y1="0.065448001"
       x2="0.959364"
       y2="0.93455201" />
  </defs>
  <g
     id="g3785">
    <path
       transform="matrix(1.0028653,0,0,0.997151,73.925502,-20.726497)"
       d="m 375,271.5 a 174.5,175.5 0 1 1 -349,0 174.5,175.5 0 1 1 349,0 z"
       sodipodi:ry="175.5"
       sodipodi:rx="174.5"
       sodipodi:cy="271.5"
       sodipodi:cx="200.5"
       id="path3816"
       style="fill:#999999;fill-opacity:0.19607843;stroke:#000000;stroke-width:0;stroke-miterlimit:4;stroke-opacity:1;stroke-dasharray:none"
       sodipodi:type="arc" />
    <path
       transform="matrix(1.0267819,0,0,0.95105458,69.31318,60.442281)"
       d="m 213,315.5 a 38,40.5 0 1 1 -76,0 38,40.5 0 1 1 76,0 z"
       sodipodi:ry="40.5"
       sodipodi:rx="38"
       sodipodi:cy="315.5"
       sodipodi:cx="175"
       id="path2994"
       style="fill:#999999;fill-opacity:0.19607843;stroke:#000000;stroke-width:0;stroke-miterlimit:4;stroke-opacity:1;stroke-dasharray:none"
       sodipodi:type="arc" />
    <path
       transform="translate(28,53)"
       d="m 396,155.5 a 20.5,20.5 0 1 1 -41,0 20.5,20.5 0 1 1 41,0 z"
       sodipodi:ry="20.5"
       sodipodi:rx="20.5"
       sodipodi:cy="155.5"
       sodipodi:cx="375.5"
       id="path2996"
       style="fill:#999999;fill-opacity:0.19607843;stroke:#000000;stroke-width:0;stroke-miterlimit:4;stroke-opacity:1;stroke-dasharray:none"
       sodipodi:type="arc" />
    <path
       transform="translate(43,-75)"
       d="m 331,222.5 a 23.5,23.5 0 1 1 -47,0 23.5,23.5 0 1 1 47,0 z"
       sodipodi:ry="23.5"
       sodipodi:rx="23.5"
       sodipodi:cy="222.5"
       sodipodi:cx="307.5"
       id="path2998"
       style="fill:#999999;fill-opacity:0.19607843;stroke:#000000;stroke-width:0;stroke-miterlimit:4;stroke-opacity:1;stroke-dasharray:none"
       sodipodi:type="arc" />
    <path
       transform="matrix(1.7,0,0,1.6666667,-164,-502)"
       d="m 270,379.5 a 20,19.5 0 1 1 -40,0 20,19.5 0 1 1 40,0 z"
       sodipodi:ry="19.5"
       sodipodi:rx="20"
       sodipodi:cy="379.5"
       sodipodi:cx="250"
       id="path3000"
       style="fill:#999999;fill-opacity:0.19607843;stroke:#000000;stroke-width:0;stroke-miterlimit:4;stroke-opacity:1;stroke-dasharray:none"
       sodipodi:type="arc" />
    <path
       transform="translate(-124,120)"
       d="m 363,171.5 a 60,57.5 0 1 1 -120,0 60,57.5 0 1 1 120,0 z"
       sodipodi:ry="57.5"
       sodipodi:rx="60"
       sodipodi:cy="171.5"
       sodipodi:cx="303"
       id="path3002"
       style="fill:#999999;fill-opacity:0.19607843;stroke:#000000;stroke-width:0;stroke-miterlimit:4;stroke-opacity:1;stroke-dasharray:none"
       sodipodi:type="arc" />
  </g>
  <g
     id="g3802">
    <path
       sodipodi:nodetypes="cccccsccsssc"
       style="fill:#000000;stroke:#000000;stroke-width:5.26261234;stroke-linejoin:bevel;stroke-miterlimit:4;stroke-opacity:1;stroke-dasharray:none"
       inkscape:connector-curvature="0"
       d="m 430.10625,373.99761 c -10.68055,26.28044 -26.45072,-13.68318 -42.91326,-2.09642 -27.47796,-16.85278 -72.81475,-84.99588 -103.59852,-87.87534 -18.04719,-1.68089 -26.30246,-16.99276 -44.03555,-29.82758 -38.09595,-27.57956 -89.72642,-50.79764 -130.75752,-75.9666 -6.5817,-4.02917 -3.57911,-30.87738 4.33211,-21.45358 27.16876,32.36334 67.43055,38.7943 95.69887,56.12806 5.39219,3.31091 26.84944,20.47215 32.27424,20.97958 1.39076,-10.56336 27.77922,23.35092 49.28143,27.85602 27.07788,5.67331 60.30467,28.74076 73.23651,47.72084 17.57134,25.78949 30.40816,12.50338 42.8006,20.19906 30.14906,18.72254 65.81819,26.3758 23.68109,44.33596 z"
       id="path2997" />
    <path
       id="path2480"
       d="m 14.078079,37.451771 c 8.953972,-12.550132 16.062823,-15.669008 23.775228,4.20338 5.548116,14.815832 -3.8053,5.19225 7.540298,16.633136 13.559141,14.94091 20.285153,26.915825 25.725765,36.420402 11.686087,20.421351 21.427418,35.113621 40.41431,60.410731 2.24057,3.22507 -6.01698,12.75089 -8.27032,7.21403 -8.159822,-20.05009 -21.785583,-27.66795 -31.400204,-41.53134 -1.832642,-2.64628 -5.157606,-10.79922 -7.851875,-12.29836 -8.378246,8.45633 -11.119155,11.318 -14.312765,19.64311 C 45.460242,139.1952 -1.1406147,168.06428 5.9009884,157.75751 17.094176,141.37407 70.666643,110.03672 49.024358,78.823297 32.250671,54.631571 32.966394,62.856725 22.321528,47.664999 z"
       inkscape:connector-curvature="0"
       style="fill:#000000;stroke:#000000;stroke-width:3.7863369;stroke-linejoin:bevel;stroke-miterlimit:4;stroke-opacity:1;stroke-dasharray:none"
       sodipodi:nodetypes="cccccsccssscc" />
  </g>
  <g
     id="g3797">
    <path
       sodipodi:nodetypes="csssssssssssscsssssssssssc"
       inkscape:connector-curvature="0"
       id="path3024"
       d="m 238.34227,223.52872 c -26.24373,10.75131 -57.11111,24.15592 -55.4077,-4.12806 0.60606,-10.06325 -1.95238,-26.47137 4.89015,-37.51408 12.21735,-19.7168 37.25234,-59.67142 41.28304,-25.96495 5.59463,46.7848 6.74879,12.52966 6.66961,-2.87845 -0.0626,-12.17821 39.29321,-15.52111 71.26314,-1.85424 34.72699,14.84549 54.06273,34.47667 64.99773,54.94922 12.821,24.00353 14.7293,34.60613 15.87075,54.41896 1.47527,25.60729 -12.52651,71.89248 -57.44111,91.42411 -42.45354,18.46141 -66.05883,-4.43979 -72.33713,-15.84889 -5.9313,-10.77852 -11.951,-42.97019 16.08807,-54.93145 24.46044,-10.43464 47.2547,10.31018 46.30391,29.0949 -1.21573,24.01899 -38.06251,31.12962 -41.88085,9.83563 -3.91196,-21.81612 13.51512,-14.88767 13.51512,-14.88767 0,0 -3.40033,14.09384 0.49211,16.44794 3.89244,2.3541 14.91838,-0.93831 15.70684,-12.37481 0.90059,-13.06287 -18.39685,-22.6498 -30.5185,-16.8318 -16.94026,8.13078 -13.36692,30.1702 -8.46389,38.22392 6.30906,10.36325 18.60783,16.22496 39.31433,10.84336 13.01067,-3.38146 27.99383,-12.99481 37.44584,-42.35698 11.53008,-35.8176 -1.80108,-35.50477 -5.6751,-34.60448 -10.44493,2.42732 -26.41996,15.12066 -36.08608,8.04433 -13.35134,-9.77419 11.48124,-20.55786 -13.65879,-33.62936 -21.41263,-11.13345 -21.62033,11.60101 -33.49647,5.45936 -14.91501,-7.71318 1.34118,-25.38529 -7.50083,-34.04247 -5.70986,-5.59049 -11.37419,13.10596 -11.37419,13.10596 z"
       style="fill:#000000;fill-opacity:1;stroke:#000000;stroke-width:5;stroke-linecap:butt;stroke-linejoin:miter;stroke-miterlimit:4;stroke-opacity:1;stroke-dasharray:none" />
    <path
       transform="matrix(0.90929468,0,0,0.87284348,-19.981236,-44.78264)"
       d="m 256,279 a 12,12 0 1 1 -24,0 12,12 0 1 1 24,0 z"
       sodipodi:ry="12"
       sodipodi:rx="12"
       sodipodi:cy="279"
       sodipodi:cx="244"
       id="path3026"
       style="fill:#ffffff;stroke:#000000;stroke-width:3.3674469;stroke-miterlimit:4;stroke-opacity:1;stroke-dasharray:none"
       sodipodi:type="arc" />
    <path
       transform="matrix(1.6742568,0,0,1.7176311,-217.27735,-260.77116)"
       d="m 252.59403,267.68188 a 2.1985941,1.9543058 0 1 1 -4.39719,0 2.1985941,1.9543058 0 1 1 4.39719,0 z"
       sodipodi:ry="1.9543058"
       sodipodi:rx="2.1985941"
       sodipodi:cy="267.68188"
       sodipodi:cx="250.39543"
       id="path3806"
       style="fill:#000000;stroke:#000000;stroke-width:0;stroke-miterlimit:4;stroke-opacity:1;stroke-dasharray:none"
       sodipodi:type="arc" />
  </g>
</svg>
